<?xml version="1.0" encoding="UTF-8"?>
<svg version="1.1" xmlns="http://www.w3.org/2000/svg" width="256" height="256">
<path d="M0 0 C5.26475974 3.79552446 9.5319764 8.38953294 10.6875 14.9375 C10.59680906 20.12337272 10.10255422 24.32506261 7.6875 28.9375 C8.60039795 28.95208252 9.5132959 28.96666504 10.45385742 28.98168945 C13.85548611 29.04290795 17.25632681 29.11708873 20.6574707 29.19995117 C22.12676422 29.23311259 23.59618244 29.26117178 25.06567383 29.28393555 C27.18364368 29.31764519 29.30047995 29.36996433 31.41796875 29.42578125 C33.32678833 29.46505737 33.32678833 29.46505737 35.27416992 29.50512695 C40.09082961 30.11526245 42.48849639 31.69420887 45.82159424 35.15042114 C48.11650543 38.57829977 48.0634994 40.22897558 47.83764648 44.3112793 C47.7964232 45.65210895 47.76027944 46.99310109 47.72828674 48.33418274 C47.70805513 49.05824121 47.68782352 49.78229969 47.66697884 50.52829933 C47.29507932 69.13677105 50.55268771 86.83502829 54.47265625 104.95703125 C54.61526744 105.61805391 54.75787864 106.27907657 54.90481138 106.96013021 C56.6739774 115.14523724 58.49524132 123.31828645 60.3394655 131.48677337 C62.39262075 140.58453712 64.40025563 149.69238615 66.40125942 158.80174541 C66.54912854 159.47487091 66.69699765 160.14799641 66.84934765 160.84151965 C67.14411147 162.18351391 67.43876778 163.52553178 67.7333135 164.86757392 C68.72399843 169.3748298 69.7335472 173.87760269 70.7490387 178.37934875 C71.27172733 180.72527755 71.79427248 183.07123832 72.31665039 185.41723633 C72.67897263 186.99808517 72.67897263 186.99808517 73.0486145 188.61087036 C76.07447096 202.31216211 76.07447096 202.31216211 72.9375 208.25 C68.75205801 213.24927794 64.96142682 214.61574552 58.66430664 215.90771484 C57.44805823 216.17001326 57.44805823 216.17001326 56.20723915 216.43761063 C53.50601973 217.0176041 50.80195026 217.58296824 48.09765625 218.1484375 C46.18281667 218.55666603 44.26817288 218.96581385 42.35371399 219.37582397 C37.21750001 220.47315585 32.07871545 221.55795337 26.93926239 222.63999939 C21.63150574 223.75921416 16.32584972 224.88829597 11.02001953 226.01660156 C4.63826755 227.37306007 -1.74373491 228.72829262 -8.12689209 230.078125 C-19.91142752 232.570869 -31.68907203 235.09170488 -43.45624733 237.66516495 C-47.67919224 238.58790022 -51.90340957 239.50479602 -56.12755489 240.42201805 C-59.32558013 241.11701607 -62.52244449 241.81679512 -65.71798706 242.52313232 C-69.1978537 243.29139682 -72.68046732 244.04572877 -76.1640625 244.796875 C-77.14638351 245.01773773 -78.12870453 245.23860046 -79.14079285 245.46615601 C-86.3067376 246.9903231 -94.32783241 248.51476425 -101.3125 245.75 C-106.38100721 241.15666534 -106.90005943 236.46543871 -107.3125 229.9375 C-108.26769531 230.081875 -109.22289062 230.22625 -110.20703125 230.375 C-130.42573297 233.27778469 -130.42573297 233.27778469 -136.8125 230.3125 C-141.22898619 226.11683812 -142.6443222 221.49734193 -143.47050476 215.57522583 C-143.65132599 214.31641602 -143.83214722 213.0576062 -144.01844788 211.76065063 C-144.20610775 210.37838484 -144.39355488 208.99609014 -144.58081055 207.61376953 C-144.7872541 206.14792492 -144.99461462 204.6822092 -145.20281982 203.21661377 C-145.76398734 199.24679566 -146.31193003 195.27525485 -146.85719275 191.30322504 C-147.430779 187.1393179 -148.01554898 182.97698047 -148.59883118 178.81442261 C-149.57679212 171.82307472 -150.54652591 164.83062472 -151.51098633 157.83740234 C-152.62444642 149.76426804 -153.74910378 141.69275769 -154.88020295 133.62207711 C-155.96996457 125.84551921 -157.05343668 118.06809923 -158.13349342 110.29018784 C-158.59228363 106.98632583 -159.05294793 103.68273327 -159.51508141 100.37933731 C-160.05953698 96.48453294 -160.59836562 92.58898883 -161.13294983 88.69281769 C-161.32940954 87.26718579 -161.52769537 85.8418041 -161.7279911 84.41670609 C-164.47915582 64.81823448 -164.47915582 64.81823448 -161.75 60.125 C-161.45996094 59.58230469 -161.16992188 59.03960937 -160.87109375 58.48046875 C-156.33653513 53.99136936 -149.92343076 53.35318294 -143.875 52.75 C-142.77768555 52.6272168 -142.77768555 52.6272168 -141.65820312 52.50195312 C-139.87735534 52.30408115 -138.09505073 52.11939293 -136.3125 51.9375 C-136.38210937 51.00808594 -136.45171875 50.07867187 -136.5234375 49.12109375 C-137.02086761 37.76310613 -137.02086761 37.76310613 -133.5 33.625 C-129.38684851 29.59309594 -125.09711293 29.7973056 -119.62817383 29.82397461 C-118.8474501 29.82382858 -118.06672638 29.82368256 -117.26234436 29.8235321 C-114.68137841 29.82422886 -112.1004846 29.83201018 -109.51953125 29.83984375 C-107.73019958 29.84170877 -105.9408674 29.84313228 -104.15153503 29.84413147 C-99.44152416 29.84795001 -94.73154411 29.85777467 -90.02154541 29.86883545 C-85.21553972 29.87906379 -80.40952906 29.88363214 -75.60351562 29.88867188 C-66.17316354 29.89939751 -56.74283433 29.91646601 -47.3125 29.9375 C-47.11914062 28.79474609 -47.11914062 28.79474609 -46.921875 27.62890625 C-45.4332198 21.05401244 -40.81224763 17.1954017 -35.375 13.6875 C-32.63287505 12.69036365 -30.20421193 12.80605855 -27.3125 12.9375 C-26.9721875 11.6071875 -26.9721875 11.6071875 -26.625 10.25 C-24.71980264 5.44164476 -21.88609181 3.02402768 -17.6875 0.125 C-11.79801231 -1.94722715 -5.93723064 -1.90439473 0 0 Z " fill="#FDFAFD" transform="translate(172.3125,5.0625)"/>
<path d="M0 0 C5.26475974 3.79552446 9.5319764 8.38953294 10.6875 14.9375 C10.59680906 20.12337272 10.10255422 24.32506261 7.6875 28.9375 C8.60039795 28.95208252 9.5132959 28.96666504 10.45385742 28.98168945 C13.85548611 29.04290795 17.25632681 29.11708873 20.6574707 29.19995117 C22.12676422 29.23311259 23.59618244 29.26117178 25.06567383 29.28393555 C27.18364368 29.31764519 29.30047995 29.36996433 31.41796875 29.42578125 C33.32678833 29.46505737 33.32678833 29.46505737 35.27416992 29.50512695 C40.09082961 30.11526245 42.48849639 31.69420887 45.82159424 35.15042114 C48.11650543 38.57829977 48.0634994 40.22897558 47.83764648 44.3112793 C47.7964232 45.65210895 47.76027944 46.99310109 47.72828674 48.33418274 C47.70805513 49.05824121 47.68782352 49.78229969 47.66697884 50.52829933 C47.29507932 69.13677105 50.55268771 86.83502829 54.47265625 104.95703125 C54.61526744 105.61805391 54.75787864 106.27907657 54.90481138 106.96013021 C56.6739774 115.14523724 58.49524132 123.31828645 60.3394655 131.48677337 C62.39262075 140.58453712 64.40025563 149.69238615 66.40125942 158.80174541 C66.54912854 159.47487091 66.69699765 160.14799641 66.84934765 160.84151965 C67.14411147 162.18351391 67.43876778 163.52553178 67.7333135 164.86757392 C68.72399843 169.3748298 69.7335472 173.87760269 70.7490387 178.37934875 C71.27172733 180.72527755 71.79427248 183.07123832 72.31665039 185.41723633 C72.67897263 186.99808517 72.67897263 186.99808517 73.0486145 188.61087036 C76.07447096 202.31216211 76.07447096 202.31216211 72.9375 208.25 C68.75205801 213.24927794 64.96142682 214.61574552 58.66430664 215.90771484 C57.44805823 216.17001326 57.44805823 216.17001326 56.20723915 216.43761063 C53.50601973 217.0176041 50.80195026 217.58296824 48.09765625 218.1484375 C46.18281667 218.55666603 44.26817288 218.96581385 42.35371399 219.37582397 C37.21750001 220.47315585 32.07871545 221.55795337 26.93926239 222.63999939 C21.63150574 223.75921416 16.32584972 224.88829597 11.02001953 226.01660156 C4.63826755 227.37306007 -1.74373491 228.72829262 -8.12689209 230.078125 C-19.91142752 232.570869 -31.68907203 235.09170488 -43.45624733 237.66516495 C-47.67919224 238.58790022 -51.90340957 239.50479602 -56.12755489 240.42201805 C-59.32558013 241.11701607 -62.52244449 241.81679512 -65.71798706 242.52313232 C-69.1978537 243.29139682 -72.68046732 244.04572877 -76.1640625 244.796875 C-77.14638351 245.01773773 -78.12870453 245.23860046 -79.14079285 245.46615601 C-86.3067376 246.9903231 -94.32783241 248.51476425 -101.3125 245.75 C-106.38100721 241.15666534 -106.90005943 236.46543871 -107.3125 229.9375 C-108.26769531 230.081875 -109.22289062 230.22625 -110.20703125 230.375 C-130.42573297 233.27778469 -130.42573297 233.27778469 -136.8125 230.3125 C-141.22898619 226.11683812 -142.6443222 221.49734193 -143.47050476 215.57522583 C-143.65132599 214.31641602 -143.83214722 213.0576062 -144.01844788 211.76065063 C-144.20610775 210.37838484 -144.39355488 208.99609014 -144.58081055 207.61376953 C-144.7872541 206.14792492 -144.99461462 204.6822092 -145.20281982 203.21661377 C-145.76398734 199.24679566 -146.31193003 195.27525485 -146.85719275 191.30322504 C-147.430779 187.1393179 -148.01554898 182.97698047 -148.59883118 178.81442261 C-149.57679212 171.82307472 -150.54652591 164.83062472 -151.51098633 157.83740234 C-152.62444642 149.76426804 -153.74910378 141.69275769 -154.88020295 133.62207711 C-155.96996457 125.84551921 -157.05343668 118.06809923 -158.13349342 110.29018784 C-158.59228363 106.98632583 -159.05294793 103.68273327 -159.51508141 100.37933731 C-160.05953698 96.48453294 -160.59836562 92.58898883 -161.13294983 88.69281769 C-161.32940954 87.26718579 -161.52769537 85.8418041 -161.7279911 84.41670609 C-164.47915582 64.81823448 -164.47915582 64.81823448 -161.75 60.125 C-161.45996094 59.58230469 -161.16992188 59.03960937 -160.87109375 58.48046875 C-156.33653513 53.99136936 -149.92343076 53.35318294 -143.875 52.75 C-142.77768555 52.6272168 -142.77768555 52.6272168 -141.65820312 52.50195312 C-139.87735534 52.30408115 -138.09505073 52.11939293 -136.3125 51.9375 C-136.38210937 51.00808594 -136.45171875 50.07867187 -136.5234375 49.12109375 C-137.02086761 37.76310613 -137.02086761 37.76310613 -133.5 33.625 C-129.38684851 29.59309594 -125.09711293 29.7973056 -119.62817383 29.82397461 C-118.8474501 29.82382858 -118.06672638 29.82368256 -117.26234436 29.8235321 C-114.68137841 29.82422886 -112.1004846 29.83201018 -109.51953125 29.83984375 C-107.73019958 29.84170877 -105.9408674 29.84313228 -104.15153503 29.84413147 C-99.44152416 29.84795001 -94.73154411 29.85777467 -90.02154541 29.86883545 C-85.21553972 29.87906379 -80.40952906 29.88363214 -75.60351562 29.88867188 C-66.17316354 29.89939751 -56.74283433 29.91646601 -47.3125 29.9375 C-47.11914062 28.79474609 -47.11914062 28.79474609 -46.921875 27.62890625 C-45.4332198 21.05401244 -40.81224763 17.1954017 -35.375 13.6875 C-32.63287505 12.69036365 -30.20421193 12.80605855 -27.3125 12.9375 C-26.9721875 11.6071875 -26.9721875 11.6071875 -26.625 10.25 C-24.71980264 5.44164476 -21.88609181 3.02402768 -17.6875 0.125 C-11.79801231 -1.94722715 -5.93723064 -1.90439473 0 0 Z M-131.3125 39.9375 C-132.05251092 43.0555702 -132.05251092 43.0555702 -131.93395996 46.50341797 C-131.94034878 47.14936354 -131.9467376 47.7953091 -131.95332003 48.46082878 C-131.96853851 50.61775218 -131.94813342 52.77282912 -131.92773438 54.9296875 C-131.93123658 56.47894905 -131.93689628 58.02820701 -131.94454956 59.57745361 C-131.95879323 63.78007764 -131.94174052 67.98204703 -131.91826439 72.18460846 C-131.89815164 76.58384451 -131.90403517 80.98305349 -131.90637207 85.38232422 C-131.9063185 92.76996654 -131.88656438 100.15735307 -131.85449219 107.54492188 C-131.81759954 116.08431902 -131.80881668 124.62338108 -131.8157897 133.16284752 C-131.82209637 141.37962745 -131.81133738 149.59629256 -131.79182434 157.81304932 C-131.78365254 161.30895627 -131.78094039 164.80480451 -131.78251648 168.30072021 C-131.78339585 172.41794763 -131.76916526 176.53485694 -131.74328995 180.65200043 C-131.7361318 182.16246753 -131.73404285 183.67296848 -131.73740768 185.18344879 C-131.74112664 187.24650422 -131.72636226 189.30863342 -131.70690918 191.37158203 C-131.70318047 192.52562531 -131.69945175 193.67966858 -131.69561005 194.86868286 C-131.2682113 198.29226471 -130.35936441 200.18490204 -128.3125 202.9375 C-125.47617315 204.35566343 -123.09035335 204.07003518 -119.91752625 204.07794189 C-119.25372619 204.08091302 -118.58992613 204.08388414 -117.90601093 204.0869453 C-115.67129611 204.09564931 -113.43663475 204.09714198 -111.2019043 204.09863281 C-109.6038298 204.10325981 -108.00575642 204.10828431 -106.40768433 204.11367798 C-102.05843262 204.12681597 -97.70919635 204.13324973 -93.35992789 204.13768864 C-90.64387347 204.14061729 -87.9278233 204.14472171 -85.21177101 204.14919281 C-76.7173803 204.16287181 -68.22299926 204.17253633 -59.7285983 204.1763947 C-49.91666972 204.18087573 -40.10488042 204.19842398 -30.2929942 204.2273953 C-22.71331772 204.24900014 -15.13368045 204.25909835 -7.5539735 204.26043582 C-3.02491298 204.26148477 1.50401667 204.26741149 6.03304482 204.28525543 C10.29380393 204.30171531 14.55433352 204.30390181 18.81511307 204.29511642 C20.37881395 204.29434491 21.94252706 204.29870381 23.50619698 204.30857468 C25.64159721 204.32126382 27.77618086 204.31543467 29.91157532 204.30499268 C31.10638677 204.30645924 32.30119822 204.3079258 33.53221607 204.3094368 C37.03325182 203.89674366 38.91703857 203.093419 41.6875 200.9375 C42.79731887 197.60804339 42.82171388 195.11393358 42.83467102 191.60536194 C42.83834771 190.96041965 42.8420244 190.31547737 42.8458125 189.65099138 C42.85684096 187.48615092 42.86069168 185.32135848 42.86450195 183.15649414 C42.87076706 181.60590971 42.8774139 180.05532677 42.88441467 178.50474548 C42.90181565 174.28991816 42.91237321 170.07510217 42.9206202 165.86024785 C42.92577056 163.22811833 42.93184617 160.59599232 42.93813133 157.96386528 C42.9571779 149.73164537 42.97141215 141.49943442 42.9797433 133.26719671 C42.98952539 123.75802673 43.01587235 114.24908892 43.05624419 104.74000078 C43.08636899 97.39301511 43.10120856 90.04609615 43.10452431 82.69904989 C43.10687826 78.30915523 43.11588369 73.91950878 43.14098549 69.52968025 C43.16420891 65.40182494 43.16852281 61.27438228 43.15822411 57.14647865 C43.15772729 55.63072591 43.1640906 54.11495324 43.17778015 52.59926224 C43.19541521 50.5312171 43.18843678 48.46466662 43.17524719 46.3966217 C43.17882972 44.66027765 43.17882972 44.66027765 43.18248463 42.88885593 C42.58104175 39.30274052 41.49854559 38.16377883 38.6875 35.9375 C35.38194217 34.28472108 31.69928014 34.79586308 28.06640625 34.8046875 C26.782855 34.80325241 26.782855 34.80325241 25.47337341 34.80178833 C23.66185432 34.80110721 21.85033278 34.80295676 20.03881836 34.80712891 C17.26475537 34.81247158 14.49085477 34.80718501 11.71679688 34.80078125 C9.95833298 34.80144217 8.19986918 34.80272363 6.44140625 34.8046875 C5.61008682 34.80266327 4.7787674 34.80063904 3.92225647 34.79855347 C0.59250551 34.81211184 -2.13165406 34.87721802 -5.3125 35.9375 C-6.04688093 38.04371183 -6.04688093 38.04371183 -6.5 40.5625 C-8.37808764 47.4985062 -12.73719558 50.82898714 -18.75 54.375 C-24.10173662 55.54977145 -29.09720576 55.73211644 -34.125 53.375 C-37.03339846 51.7465845 -37.03339846 51.7465845 -39.28515625 52.125 C-41.81940797 53.14065387 -43.09859196 54.49502317 -44.9375 56.5 C-46.02568768 57.68084995 -47.14443202 58.83560336 -48.3125 59.9375 C-48.9725 59.9375 -49.6325 59.9375 -50.3125 59.9375 C-49.60448377 55.71663403 -47.67885421 54.23363171 -44.4921875 51.59765625 C-43.04230978 49.96159049 -43.04230978 49.96159049 -43.64111328 47.66577148 C-44.30809963 44.95538152 -45.05667276 42.29345841 -45.875 39.625 C-46.14441406 38.74199219 -46.41382812 37.85898437 -46.69140625 36.94921875 C-46.89636719 36.28535156 -47.10132812 35.62148438 -47.3125 34.9375 C-57.52634495 34.82161692 -67.74003335 34.73279012 -77.95440197 34.67843914 C-82.69745807 34.65235234 -87.4400642 34.61697125 -92.18286133 34.56030273 C-96.7605309 34.50594991 -101.33776787 34.47607256 -105.91573524 34.46311378 C-107.66168338 34.45387973 -109.407608 34.43584739 -111.15337181 34.40884972 C-113.60040699 34.37251437 -116.04565809 34.36755629 -118.49291992 34.36987305 C-119.57401787 34.34290848 -119.57401787 34.34290848 -120.67695618 34.31539917 C-126.00691841 34.36994802 -128.02655605 35.85773237 -131.3125 39.9375 Z " fill="#2B1663" transform="translate(172.3125,5.0625)"/>
<path d="M0 0 C0.00238835 0.7211455 0.00477671 1.44229099 0.00723743 2.18528938 C0.06638964 19.7374517 0.1419411 37.2894668 0.23571491 54.84147835 C0.28066846 63.32952762 0.32008414 71.81753498 0.34643555 80.30566406 C0.36941921 87.70446281 0.40282132 95.10312886 0.44870156 102.50182235 C0.47262889 106.41889974 0.49136084 110.33584575 0.49761391 114.25299454 C0.50366704 117.94173336 0.5236748 121.63013605 0.55427551 125.31875038 C0.56722957 127.31427219 0.56548642 129.30987255 0.5632782 131.30543518 C0.58208542 133.09740074 0.58208542 133.09740074 0.60127258 134.92556763 C0.60588155 135.95981936 0.61049051 136.99407108 0.61523914 138.05966377 C1.07445669 141.56899679 2.19625468 143.96927814 4 147 C9.32861337 151.01807506 15.40206587 150.44063098 21.78857422 150.43237305 C22.96963242 150.4425647 24.15069061 150.45275635 25.36753845 150.46325684 C28.59235125 150.48820954 31.81689024 150.50010093 35.04178381 150.50611091 C38.41709679 150.51551435 41.79227908 150.54171925 45.16751099 150.56611633 C51.55278406 150.60973105 57.93803169 150.63830878 64.32340825 150.66143972 C71.59555213 150.68851845 78.86756421 150.73242824 86.13961387 150.77772844 C101.0930048 150.8705026 116.04642984 150.94221632 131 151 C131 151.33 131 151.66 131 152 C130.28321579 152.10387024 129.56643158 152.20774048 128.82792664 152.3147583 C121.93440306 153.31378714 115.04094073 154.31323742 108.14754009 155.31311417 C104.60709916 155.82663558 101.06663803 156.34001672 97.52612305 156.85302734 C93.41708877 157.4484374 89.30813071 158.04437146 85.19921875 158.640625 C84.51813112 158.73942711 83.8370435 158.83822922 83.13531685 158.94002533 C73.58978871 160.32531908 64.04789669 161.73390772 54.5078125 163.15625 C44.74458665 164.60895899 34.97797752 165.99335796 25.1875 167.25 C23.88103516 167.42273438 22.57457031 167.59546875 21.22851562 167.7734375 C19.97103516 167.93585938 18.71355469 168.09828125 17.41796875 168.265625 C16.32250732 168.40774414 15.2270459 168.54986328 14.09838867 168.69628906 C5.96277985 169.4937595 5.96277985 169.4937595 2.24462891 167.58691406 C-0.98052912 163.86994925 -1.27893531 160.39473831 -1.9140625 155.609375 C-2.05433868 154.68065582 -2.19461487 153.75193665 -2.33914185 152.79507446 C-2.78861018 149.78269234 -3.20721417 146.76692445 -3.625 143.75 C-3.92707037 141.68156314 -4.23078401 139.61336559 -4.53613281 137.54541016 C-6.31847591 125.3613677 -7.95460471 113.15945656 -9.390625 100.9296875 C-10.05913095 95.32603469 -10.96236726 89.76848775 -11.87817383 84.20092773 C-13.04901517 76.96514345 -13.92391827 69.70167993 -14.80029297 62.42529297 C-15.8882171 53.55354758 -17.22495429 44.72872964 -18.64233398 35.90405273 C-19.64289809 29.61329853 -20.45945854 23.34713914 -21 17 C-21.10183594 15.85789062 -21.20367187 14.71578125 -21.30859375 13.5390625 C-21.43848996 10.60262099 -21.45294753 7.90677979 -21 5 C-17.57729301 1.32058999 -14.0516156 0.52923798 -9.22265625 0.078125 C-6.1482018 -0.02994018 -3.07610476 -0.00446881 0 0 Z " fill="#A3DCF4" transform="translate(36,63)"/>
<path d="M0 0 C1.43940037 2.67470735 2.3642884 5.07335264 2.95800781 8.04882812 C3.11889389 8.84005569 3.27977997 9.63128326 3.44554138 10.44648743 C3.61304398 11.29945908 3.78054657 12.15243073 3.953125 13.03125 C4.22425865 14.37469734 4.22425865 14.37469734 4.50086975 15.74528503 C4.88792204 17.66582981 5.27244849 19.58688502 5.6546936 21.50839233 C6.45335158 25.5219076 7.26464306 29.53283149 8.07563782 33.54386902 C8.48074544 35.54750615 8.88527688 37.55125986 9.28923035 39.55513 C10.91446008 47.61011291 12.58828394 55.65310839 14.3125 63.6875 C14.66707275 65.34833618 14.66707275 65.34833618 15.02880859 67.04272461 C16.20884147 72.519169 17.46899969 77.96412008 18.83496094 83.39697266 C22.58806341 98.44670995 22.58806341 98.44670995 21 104 C17.20347552 107.66918984 13.91286872 108.80995873 8.796875 109.89453125 C8.09561996 110.04720963 7.39436493 110.199888 6.67185974 110.35719299 C4.36719288 110.855562 2.05887846 111.33405787 -0.25 111.8125 C-1.88396893 112.16170299 -3.51767333 112.51214583 -5.15112305 112.86376953 C-9.31494226 113.75681961 -13.48194104 114.63392154 -17.65008545 115.50653076 C-21.12417587 116.2360708 -24.59521907 116.97941995 -28.06640625 117.72265625 C-33.35119198 118.85182413 -38.63765514 119.97255646 -43.92578125 121.0859375 C-54.78756346 123.37317324 -65.64347525 125.68796433 -76.5 128 C-87.73205987 130.39150866 -98.96420174 132.78257242 -110.19921875 135.16015625 C-110.97721832 135.3248642 -111.7552179 135.48957214 -112.55679321 135.65927124 C-116.13923069 136.41764985 -119.72181422 137.17532361 -123.3046875 137.93164062 C-124.53832031 138.19267578 -125.77195312 138.45371094 -127.04296875 138.72265625 C-128.10539795 138.94703369 -129.16782715 139.17141113 -130.26245117 139.40258789 C-131.89964048 139.75986982 -133.53255224 140.13952253 -135.15356445 140.56420898 C-139.05994327 141.48618257 -142.67423398 141.64496725 -146.3125 139.875 C-149.75092652 136.05452608 -150.10057076 131.94472918 -150 127 C-134.66566119 124.38006272 -119.29815721 122.20486384 -103.875 120.1875 C-85.7007767 117.80995539 -67.56850617 115.20971377 -49.44873047 112.44799805 C-47.6142772 112.16963131 -45.77980479 111.8913907 -43.9453125 111.61328125 C-42.61299088 111.40964211 -42.61299088 111.40964211 -41.25375366 111.20188904 C-36.41549295 110.47298411 -31.57603197 109.81389986 -26.71777344 109.23193359 C-25.6775705 109.10545944 -24.63736755 108.97898529 -23.56564331 108.84867859 C-21.57130466 108.60975044 -19.57581277 108.38019121 -17.57913208 108.16169739 C-12.54887002 107.55777122 -8.2402754 106.98536651 -4 104 C-0.62083747 98.80745715 -0.55803052 94.30628027 -0.56762695 88.32275391 C-0.5574353 87.36602783 -0.54724365 86.40930176 -0.53674316 85.42358398 C-0.5066503 82.27451696 -0.49735274 79.12575433 -0.48828125 75.9765625 C-0.47143185 73.78794344 -0.45328126 71.59933404 -0.43388367 69.41073608 C-0.38640614 63.66016662 -0.35658207 57.90963633 -0.33044434 52.15893555 C-0.30062762 46.28686791 -0.25410105 40.41493523 -0.20898438 34.54296875 C-0.12297671 23.02871646 -0.05561999 11.51443637 0 0 Z " fill="#F9C062" transform="translate(220,106)"/>
<path d="M0 0 C60.39 0.495 60.39 0.495 122 1 C122 1.33 122 1.66 122 2 C121.28321579 2.10387024 120.56643158 2.20774048 119.82792664 2.3147583 C112.93440306 3.31378714 106.04094073 4.31323742 99.14754009 5.31311417 C95.60709916 5.82663558 92.06663803 6.34001672 88.52612305 6.85302734 C85.10115049 7.34931015 81.67622912 7.84594471 78.25135231 8.34288788 C76.88006507 8.54184331 75.50876655 8.74072092 74.13745689 8.93952179 C65.70566313 10.1622518 57.27699454 11.40422077 48.85110474 12.66711426 C38.68515718 14.18899423 28.53352986 15.64537503 18.3125 16.75 C17.19423828 16.87503906 16.07597656 17.00007813 14.92382812 17.12890625 C12.28299589 17.42359139 9.64179649 17.71411553 7 18 C1.64766424 11.66170765 1.65740966 9.11575312 0 0 Z " fill="#69CAF1" transform="translate(45,213)"/>
<path d="M0 0 C4.41674242 2.07889016 7.23405719 4.89895721 10 8.875 C11.77326923 14.41646636 11.74897965 18.87990803 9.5 24.1875 C7.0027446 28.62998593 3.74150585 31.18214352 -1 33 C-5.67456932 33.90760538 -9.57731091 33.52059004 -13.8125 31.3125 C-17.88796405 28.35579079 -20.40028155 25.79915534 -22 21 C-22.52166057 16.03139685 -22.5724051 12.14481021 -20.3125 7.625 C-14.19689372 0.68296044 -9.14701998 -1.29438962 0 0 Z " fill="#FCC263" transform="translate(152,23)"/>
<path d="M0 0 C43.56 0 87.12 0 132 0 C132.33 1.32 132.66 2.64 133 4 C132 5 132 5 129.81545925 5.12304783 C128.84296765 5.12212604 127.87047606 5.12120424 126.86851501 5.12025452 C125.75647202 5.12162918 124.64442902 5.12300385 123.49868774 5.12442017 C122.26798553 5.12082489 121.03728333 5.11722961 119.76928711 5.11352539 C118.48166977 5.11367142 117.19405243 5.11381744 115.86741638 5.1139679 C112.3262524 5.11425586 108.78512201 5.10835936 105.24396586 5.10139394 C101.54705012 5.09516017 97.85013369 5.09455658 94.1532135 5.09336853 C87.14796101 5.09025528 80.14272405 5.08204199 73.13747841 5.07201904 C65.16421124 5.0608577 57.19094335 5.0553474 49.21767032 5.05032361 C32.81177111 5.03985937 16.40588753 5.02226005 0 5 C0 3.35 0 1.7 0 0 Z " fill="#311C68" transform="translate(62,87)"/>
<path d="M0 0 C0 25.41 0 50.82 0 77 C-0.33 77 -0.66 77 -1 77 C-4.05455943 58.98002049 -4.05455943 58.98002049 -4.5 51 C-4.95697551 43.00759154 -6.33041207 35.20335718 -7.62695312 27.31445312 C-10.34495694 10.45144514 -10.34495694 10.45144514 -10 2 C-11.65 2 -13.3 2 -15 2 C-15 1.67 -15 1.34 -15 1 C-9.81850771 0.27277301 -5.31964249 0 0 0 Z " fill="#6CCCF2" transform="translate(36,63)"/>
<path d="M0 0 C0.78186676 0.00359528 1.56373352 0.00719055 2.36929321 0.01089478 C3.18873917 0.01074875 4.00818512 0.01060272 4.85246277 0.01045227 C7.57416385 0.01115164 10.29579737 0.01894515 13.01748657 0.02676392 C14.89935773 0.02862801 16.78122938 0.03005195 18.6631012 0.03105164 C23.62631561 0.0348775 28.58950096 0.04470836 33.55270386 0.05575562 C38.61322639 0.06596827 43.67375359 0.07054894 48.73428345 0.07559204 C58.67114521 0.08633057 68.60798535 0.10340781 78.54483032 0.12442017 C79.10733032 2.06192017 79.10733032 2.06192017 79.54483032 4.12442017 C77.77900669 5.8902438 75.44111033 5.24427577 73.08966064 5.24884033 C71.9168605 5.24344742 71.9168605 5.24344742 70.72036743 5.23794556 C69.90092148 5.23809158 69.08147552 5.23823761 68.23719788 5.23838806 C65.51549679 5.23768869 62.79386327 5.22989518 60.07217407 5.22207642 C58.19030291 5.22021232 56.30843127 5.21878838 54.42655945 5.2177887 C49.46334503 5.21396283 44.50015968 5.20413197 39.53695679 5.19308472 C34.47643426 5.18287206 29.41590705 5.17829139 24.3553772 5.17324829 C14.41851544 5.16250976 4.48167529 5.14543253 -5.45516968 5.12442017 C-6.01766968 3.18692017 -6.01766968 3.18692017 -6.45516968 1.12442017 C-4.68934605 -0.64140346 -2.35144969 0.00456456 0 0 Z " fill="#311C68" transform="translate(115.45516967773438,115.87557983398438)"/>
<path d="M0 0 C0.78186676 0.00359528 1.56373352 0.00719055 2.36929321 0.01089478 C3.18873917 0.01074875 4.00818512 0.01060272 4.85246277 0.01045227 C7.57416385 0.01115164 10.29579737 0.01894515 13.01748657 0.02676392 C14.89935773 0.02862801 16.78122938 0.03005195 18.6631012 0.03105164 C23.62631561 0.0348775 28.58950096 0.04470836 33.55270386 0.05575562 C38.61322639 0.06596827 43.67375359 0.07054894 48.73428345 0.07559204 C58.67114521 0.08633057 68.60798535 0.10340781 78.54483032 0.12442017 C79.10733032 2.06192017 79.10733032 2.06192017 79.54483032 4.12442017 C77.79043869 5.8788118 75.48985577 5.2442498 73.15312195 5.24884033 C72.38060593 5.24524506 71.6080899 5.24164978 70.81216431 5.23794556 C69.59762573 5.2381646 69.59762573 5.2381646 68.35855103 5.23838806 C65.66931524 5.2376887 62.98014783 5.22989526 60.29092407 5.22207642 C58.43147316 5.22021232 56.57202176 5.21878838 54.71257019 5.2177887 C49.80853937 5.21396287 44.90453796 5.20413205 40.0005188 5.19308472 C35.0003194 5.18287197 30.00011526 5.17829137 24.99990845 5.17324829 C15.18153612 5.16250983 5.36318566 5.14543265 -4.45516968 5.12442017 C-5.11516968 3.80442017 -5.77516968 2.48442017 -6.45516968 1.12442017 C-4.68934605 -0.64140346 -2.35144969 0.00456456 0 0 Z " fill="#36226B" transform="translate(67.45516967773438,144.87557983398438)"/>
<path d="M0 0 C3.6182551 1.31572913 6.33076473 3.26600002 8.9375 6.125 C10.89123764 11.41158421 10.92023547 16.79143488 8.75 22 C6.90691666 24.10638096 5.63618859 25.09381017 3 26 C2.01 26 1.02 26 0 26 C-0.4021875 25.00419922 -0.4021875 25.00419922 -0.8125 23.98828125 C-3.69693749 17.48880862 -6.47055285 13.93688523 -13 11 C-13.99 10.67 -14.98 10.34 -16 10 C-15.70179167 6.42150008 -15.25754642 5.23773516 -12.5625 2.75 C-8.37446242 -0.11012323 -5.0231657 -0.6528302 0 0 Z " fill="#F9C062" transform="translate(167,9)"/>
<path d="M0 0 C28.05 0 56.1 0 85 0 C85 1.32 85 2.64 85 4 C56.95 4 28.9 4 0 4 C0 2.68 0 1.36 0 0 Z " fill="#291361" transform="translate(109,174)"/>
<path d="M0 0 C-0.61875 0.7425 -1.2375 1.485 -1.875 2.25 C-5.94436064 7.51623141 -6.71063617 11.4377191 -6 18 C-4.32615192 23.28583605 -2.04702523 26.27247676 2 30 C2.33 30.66 2.66 31.32 3 32 C-3.20920272 31.97184035 -7.13092853 31.00459792 -11.625 26.59375 C-15.3048157 22.32850908 -15.4379073 17.88494092 -15.31640625 12.43359375 C-14.67867515 7.52857551 -11.9540529 4.84047518 -8.375 1.6875 C-4.98082335 -0.72415183 -3.94897894 -1.18469368 0 0 Z " fill="#FAD79E" transform="translate(145,24)"/>
<path d="M0 0 C2.0625 0.4375 2.0625 0.4375 4 1 C4.57969796 4.92722245 5.14884005 8.85582846 5.70898438 12.78588867 C5.9933567 14.76623658 6.285647 16.74544236 6.578125 18.72460938 C7.63922177 26.20913122 8.28389804 33.44022893 8 41 C6.68 40.67 5.36 40.34 4 40 C2.39600342 32.60081937 1.28908913 25.20075298 0.375 17.6875 C0.17390625 16.10098633 0.17390625 16.10098633 -0.03125 14.48242188 C-1.18493628 5.15286705 -1.18493628 5.15286705 -1 1 C-0.67 0.67 -0.34 0.34 0 0 Z " fill="#F9FCFE" transform="translate(23,72)"/>
<path d="M0 0 C11.88 0 23.76 0 36 0 C36 1.32 36 2.64 36 4 C34.2717886 5.7282114 32.05749626 5.12817712 29.75416565 5.13894653 C29.02189255 5.1369223 28.28961945 5.13489807 27.53515625 5.1328125 C26.78664902 5.13376923 26.03814178 5.13472595 25.26695251 5.13571167 C23.68065304 5.13639346 22.09435079 5.13453922 20.50805664 5.13037109 C18.07627091 5.12503024 15.64467051 5.1303122 13.21289062 5.13671875 C11.67447876 5.13605782 10.13606701 5.13477635 8.59765625 5.1328125 C7.86740738 5.13483673 7.13715851 5.13686096 6.38478088 5.13894653 C1.22991336 5.11495668 1.22991336 5.11495668 -1 4 C-0.67 2.68 -0.34 1.36 0 0 Z " fill="#38236D" transform="translate(158,145)"/>
<path d="M0 0 C11.88 0 23.76 0 36 0 C36.495 1.98 36.495 1.98 37 4 C36 5 36 5 32.58178711 5.11352539 C31.06363012 5.11336628 29.54546771 5.10767226 28.02734375 5.09765625 C27.22970108 5.0962413 26.43205841 5.09482635 25.61024475 5.09336853 C23.05262565 5.08775316 20.49509282 5.07519812 17.9375 5.0625 C16.20768355 5.05748698 14.47786574 5.05292373 12.74804688 5.04882812 C8.49866447 5.03777875 4.24934688 5.02050386 0 5 C0 3.35 0 1.7 0 0 Z " fill="#331E69" transform="translate(62,116)"/>
<path d="M0 0 C11.88 0 23.76 0 36 0 C36 1.32 36 2.64 36 4 C24.12 4 12.24 4 0 4 C0 2.68 0 1.36 0 0 Z " fill="#2A1462" transform="translate(62,174)"/>
</svg>
